<svg width="40" height="40" viewBox="0 0 40 40" fill="none" xmlns="http://www.w3.org/2000/svg">
<path d="M5.28397 31.8834L26.9766 10.1908L11.0766 11.2528C10.549 11.2856 10.0298 11.1082 9.63267 10.7593C9.23547 10.4104 8.99263 9.91847 8.95713 9.39102C8.92162 8.86359 9.09637 8.34354 9.44318 7.94458C9.78999 7.54561 10.2806 7.30016 10.8079 7.26192L32.0211 5.84771C32.0423 5.84629 32.0621 5.8576 32.0833 5.85619C32.2833 5.85547 32.4822 5.88553 32.673 5.94528C32.7409 5.96226 32.8131 5.95801 32.8795 5.98488C33.1382 6.08271 33.3731 6.23442 33.5686 6.42997C33.7642 6.62555 33.916 6.86047 34.0137 7.11908C34.0406 7.18555 34.0363 7.25768 34.0547 7.32697C34.1071 7.52072 34.1481 7.71447 34.1424 7.91529C34.141 7.9365 34.1523 7.9563 34.1509 7.97751L32.7367 29.1907C32.7201 29.4531 32.6516 29.7096 32.5354 29.9455C32.4192 30.1814 32.2574 30.3918 32.0594 30.5649C31.8615 30.738 31.6311 30.8699 31.3818 30.9535C31.1326 31.0372 30.8691 31.0705 30.6069 31.0518C30.0777 31.0162 29.5843 30.7717 29.2352 30.3723C28.8862 29.9729 28.7101 29.4512 28.7458 28.922L29.805 13.0192L8.11239 34.7118C7.73734 35.0869 7.22851 35.2976 6.69818 35.2976C6.16785 35.2976 5.65902 35.0869 5.28397 34.7118C4.90889 34.3367 4.69824 33.828 4.69818 33.2976C4.69814 32.7672 4.90892 32.2584 5.28397 31.8834Z" fill="#FFFCF1"/>
</svg>
