<svg width="154" height="14" viewBox="0 0 154 14" fill="none" xmlns="http://www.w3.org/2000/svg">
<path d="M6.47253 6.92371H125.802" stroke="#595407" stroke-miterlimit="10"/>
<path d="M150.511 6.92371H126.008" stroke="#595407" stroke-miterlimit="10"/>
<path d="M130.32 12.5415L151.667 6.86866L130.555 1.30559L125.886 6.82703L130.32 12.5415Z" stroke="#595407" stroke-miterlimit="10"/>
<path d="M128.691 6.92778L132.245 11.7834" stroke="#595407" stroke-miterlimit="10"/>
<path d="M131.552 7.28288L134.586 11.4279" stroke="#595407" stroke-miterlimit="10"/>
<path d="M29.332 9.44193C30.7686 9.44193 31.9331 8.27741 31.9331 6.8409C31.9331 5.40439 30.7686 4.23987 29.332 4.23987C27.8955 4.23987 26.731 5.40439 26.731 6.8409C26.731 8.27741 27.8955 9.44193 29.332 9.44193Z" stroke="#595407" stroke-miterlimit="10"/>
<path d="M14.0728 9.44193C15.5093 9.44193 16.6739 8.27741 16.6739 6.8409C16.6739 5.40439 15.5093 4.23987 14.0728 4.23987C12.6363 4.23987 11.4718 5.40439 11.4718 6.8409C11.4718 8.27741 12.6363 9.44193 14.0728 9.44193Z" stroke="#595407" stroke-miterlimit="10"/>
<path d="M24.8689 12.6945L29.5382 7.1735L25.1035 1.45799H16.9872L21.421 7.1735L16.7526 12.6945H24.8689Z" stroke="#595407" stroke-miterlimit="10"/>
<path d="M9.78288 12.6939L14.4523 7.17299L10.0175 1.45799H1.90123L6.33495 7.17299L1.66663 12.6939H9.78288Z" stroke="#595407" stroke-miterlimit="10"/>
</svg>
