<svg width="1960" height="184" viewBox="0 0 1960 184" fill="none" xmlns="http://www.w3.org/2000/svg">
<path d="M6.84322 0.680089C6.86006 0.684488 6.88601 0.690767 6.9208 0.699847C6.99057 0.71806 7.09625 0.74601 7.23766 0.782831C7.52046 0.856467 7.94574 0.967186 8.51038 1.11345C9.64012 1.40609 11.3281 1.84189 13.5487 2.41089C17.99 3.54894 24.564 5.22118 33.072 7.35039C50.0885 11.6089 74.8415 17.6963 105.749 25.0048C167.568 39.6232 253.984 59.1186 352.347 78.6202C549.329 117.674 793.294 156.561 983.597 156.699L988.05 156.695C1176.98 156.236 1416.65 118.156 1610.24 79.8465C1707.67 60.5658 1793.2 41.2753 1854.37 26.8054C1884.94 19.5711 1909.43 13.5428 1926.26 9.32619C1934.67 7.21805 1941.17 5.56365 1945.56 4.43674C1947.76 3.87336 1949.43 3.44092 1950.54 3.15116C1951.1 3.00627 1951.52 2.89741 1951.8 2.82449C1951.94 2.7881 1952.05 2.76083 1952.12 2.74282C1952.15 2.73388 1952.17 2.72741 1952.19 2.72307C1952.2 2.72089 1952.21 2.71889 1952.21 2.7178C1952.21 2.72063 1952.27 2.93827 1955.62 15.7647C1958.92 28.3798 1959.02 28.8002 1959.02 28.8155C1959.02 28.8168 1959.01 28.8196 1959 28.8221C1958.98 28.8271 1958.95 28.8347 1958.92 28.8445C1958.84 28.8639 1958.73 28.8923 1958.59 28.9301C1958.3 29.0059 1957.86 29.1182 1957.29 29.266C1956.15 29.5616 1954.46 29.9992 1952.24 30.5687C1947.81 31.7077 1941.26 33.3752 1932.79 35.4963C1915.86 39.7387 1891.26 45.7957 1860.55 53.0599C1799.15 67.5871 1713.29 86.9525 1615.46 106.312C1421.58 144.678 1179.78 183.207 988.096 183.671L983.577 183.675C790.499 183.535 544.378 144.191 347.12 105.083C248.364 85.5035 161.621 65.9355 99.5625 51.2606C68.5305 43.9225 43.6634 37.8058 26.5454 33.5218C17.9865 31.3799 11.3638 29.6954 6.87609 28.5455C4.63267 27.9706 2.92265 27.5293 1.77075 27.2309C1.19475 27.0817 0.757588 26.9689 0.463845 26.8924C0.317295 26.8542 0.206321 26.8251 0.131202 26.8054C0.0939718 26.7957 0.0652261 26.7881 0.0457401 26.7831C0.0362886 26.7806 0.0282929 26.7777 0.0233886 26.7765C0.0178436 26.775 0.013987 26.7745 3.41687 13.7243C6.81976 0.674127 6.82127 0.673892 6.82482 0.67482C6.82902 0.675921 6.83486 0.677903 6.84322 0.680089Z" fill="#BE0007"/>
</svg>
