<svg width="1440" height="236" viewBox="0 0 1440 236" fill="none" xmlns="http://www.w3.org/2000/svg">
<path d="M-4.87871 19.9629C-4.86898 19.9654 -4.85221 19.9695 -4.8289 19.9756C-4.78228 19.9877 -4.70866 20.0072 -4.6082 20.0332C-4.40722 20.0852 -4.09925 20.1653 -3.68632 20.2715C-2.86013 20.484 -1.61406 20.8027 0.0324268 21.2217C3.3255 22.0596 8.22134 23.2968 14.5715 24.875C27.2727 28.0316 45.7857 32.5534 68.9211 37.9863C115.208 48.8559 179.917 63.3526 253.553 77.8506C401.574 106.994 582.9 135.574 723.142 135.675L726.424 135.672C865.653 135.334 1043.78 107.35 1189.23 78.7656C1262.16 64.4337 1326.2 50.0906 1371.99 39.333C1394.87 33.9561 1413.18 29.4793 1425.74 26.3545C1432.02 24.7923 1436.86 23.5687 1440.11 22.7393C1441.74 22.3245 1442.97 22.0081 1443.79 21.7979C1444.2 21.6928 1444.5 21.6139 1444.7 21.5625C1444.8 21.5368 1444.87 21.5178 1444.92 21.5059C1444.94 21.4999 1444.95 21.4956 1444.96 21.4932C1444.97 21.492 1444.97 21.4918 1444.97 21.4912C1444.97 21.4911 1444.97 21.4917 1455.05 60.2012C1465.13 98.9104 1465.12 98.9114 1465.12 98.9131C1465.11 98.9142 1465.11 98.9167 1465.1 98.9189C1465.08 98.9235 1465.06 98.9295 1465.02 98.9375C1464.96 98.9536 1464.87 98.9769 1464.76 99.0068C1464.53 99.0667 1464.19 99.1538 1463.75 99.2676C1462.87 99.495 1461.57 99.8283 1459.87 100.261C1456.48 101.126 1451.49 102.387 1445.06 103.987C1432.19 107.188 1413.54 111.748 1390.28 117.213C1343.78 128.139 1278.76 142.702 1204.66 157.265C1058.35 186.017 873.925 215.319 726.559 215.672L723.085 215.675C574.643 215.568 386.938 185.648 238.099 156.344C163.305 141.618 97.6262 126.903 50.633 115.867C27.1287 110.348 8.2783 105.744 -4.72343 102.513C-11.2248 100.897 -16.2655 99.6239 -19.6961 98.751C-21.4112 98.3146 -22.7241 97.9785 -23.616 97.749C-24.062 97.6343 -24.4033 97.5456 -24.6365 97.4854C-24.7529 97.4553 -24.8426 97.4322 -24.9051 97.416C-24.9362 97.4079 -24.9607 97.402 -24.9783 97.3975C-24.9871 97.3952 -24.9954 97.3927 -24.9998 97.3916C-25.0057 97.3885 -24.948 97.1476 -14.949 58.6748C-5.08004 20.7023 -4.89249 19.9748 -4.88847 19.9609C-4.88605 19.9616 -4.88349 19.9617 -4.87871 19.9629Z" fill="white"/>
<path d="M-2.40446 0.00391768C-2.39196 0.00717945 -2.37268 0.0118341 -2.34684 0.0185661C-2.29502 0.0320691 -2.21652 0.0527909 -2.11149 0.0800896C-1.90144 0.134683 -1.58557 0.216769 -1.16618 0.325207C-0.327066 0.542167 0.926669 0.86527 2.57601 1.28712C5.87484 2.13086 10.7576 3.37064 17.077 4.94923C29.7159 8.10646 48.1012 12.6196 71.0575 18.0381C116.974 28.8761 181.159 43.3298 254.219 57.7881C400.527 86.7421 581.731 115.573 723.079 115.675L726.387 115.672C866.712 115.332 1044.73 87.0996 1188.52 58.6973C1260.89 44.4028 1324.41 30.1009 1369.84 19.3731C1392.55 14.0096 1410.74 9.5402 1423.24 6.41407C1429.49 4.85111 1434.32 3.62455 1437.58 2.78907C1439.21 2.37139 1440.45 2.05078 1441.28 1.83595C1441.69 1.72853 1442.01 1.64782 1442.21 1.59376C1442.32 1.56678 1442.39 1.54656 1442.45 1.53321C1442.47 1.52658 1442.49 1.52179 1442.5 1.51857C1442.51 1.51695 1442.51 1.51547 1442.52 1.51466C1442.52 1.51676 1442.56 1.67812 1445.05 11.1875C1447.5 20.5403 1447.58 20.852 1447.58 20.8633C1447.57 20.8642 1447.57 20.8663 1447.56 20.8682C1447.55 20.8719 1447.52 20.8776 1447.5 20.8848C1447.44 20.8992 1447.36 20.9203 1447.25 20.9483C1447.04 21.0044 1446.71 21.0877 1446.29 21.1973C1445.45 21.4164 1444.19 21.7409 1442.54 22.1631C1439.24 23.0075 1434.38 24.2438 1428.09 25.8164C1415.52 28.9617 1397.25 33.4523 1374.44 38.8379C1328.83 49.6083 1265.06 63.9657 1192.4 78.3184C1048.39 106.763 868.791 135.328 726.421 135.672L723.064 135.675C579.656 135.571 396.849 106.402 250.336 77.4072C176.985 62.8913 112.557 48.3838 66.4627 37.5039C43.4138 32.0635 24.9437 27.5286 12.2293 24.3526C5.87222 22.7645 0.953226 21.5156 -2.38004 20.6631C-4.04634 20.2369 -5.31647 19.9097 -6.17204 19.6885C-6.59986 19.5779 -6.92456 19.4942 -7.14274 19.4375C-7.25159 19.4092 -7.33402 19.3876 -7.38981 19.3731C-7.41746 19.3659 -7.43881 19.3602 -7.45329 19.3565C-7.46031 19.3546 -7.46625 19.3525 -7.46989 19.3516C-7.47401 19.3505 -7.47687 19.3501 -4.94938 9.67482C-2.42189 -0.000502586 -2.42077 -0.00067677 -2.41813 1.14267e-05C-2.41501 0.000827289 -2.41067 0.00229724 -2.40446 0.00391768Z" fill="#BE0007"/>
<path d="M-2.40446 100.004C-2.39196 100.007 -2.37268 100.012 -2.34684 100.019C-2.29502 100.032 -2.21652 100.053 -2.11149 100.08C-1.90144 100.135 -1.58557 100.217 -1.16618 100.325C-0.327066 100.542 0.926669 100.865 2.57601 101.287C5.87484 102.131 10.7576 103.371 17.077 104.949C29.7159 108.106 48.1012 112.62 71.0575 118.038C116.974 128.876 181.159 143.33 254.219 157.788C400.527 186.742 581.731 215.573 723.079 215.675L726.387 215.672C866.712 215.332 1044.73 187.1 1188.52 158.697C1260.89 144.403 1324.41 130.101 1369.84 119.373C1392.55 114.01 1410.74 109.54 1423.24 106.414C1429.49 104.851 1434.32 103.625 1437.58 102.789C1439.21 102.371 1440.45 102.051 1441.28 101.836C1441.69 101.729 1442.01 101.648 1442.21 101.594C1442.32 101.567 1442.39 101.547 1442.45 101.533C1442.47 101.527 1442.49 101.522 1442.5 101.519C1442.51 101.517 1442.51 101.515 1442.52 101.515C1442.52 101.517 1442.56 101.678 1445.05 111.188C1447.5 120.54 1447.58 120.852 1447.58 120.863C1447.57 120.864 1447.57 120.866 1447.56 120.868C1447.55 120.872 1447.52 120.878 1447.5 120.885C1447.44 120.899 1447.36 120.92 1447.25 120.948C1447.04 121.004 1446.71 121.088 1446.29 121.197C1445.45 121.416 1444.19 121.741 1442.54 122.163C1439.24 123.008 1434.38 124.244 1428.09 125.816C1415.52 128.962 1397.25 133.452 1374.44 138.838C1328.83 149.608 1265.06 163.966 1192.4 178.318C1048.39 206.763 868.791 235.328 726.421 235.672L723.064 235.675C579.656 235.571 396.849 206.402 250.336 177.407C176.985 162.891 112.557 148.384 66.4627 137.504C43.4138 132.064 24.9437 127.529 12.2293 124.353C5.87222 122.765 0.953226 121.516 -2.38004 120.663C-4.04634 120.237 -5.31647 119.91 -6.17204 119.688C-6.59986 119.578 -6.92456 119.494 -7.14274 119.438C-7.25159 119.409 -7.33402 119.388 -7.38981 119.373C-7.41746 119.366 -7.43881 119.36 -7.45329 119.356C-7.46031 119.355 -7.46625 119.353 -7.46989 119.352C-7.47401 119.35 -7.47687 119.35 -4.94938 109.675C-2.42189 99.9995 -2.42077 99.9993 -2.41813 100C-2.41501 100.001 -2.41067 100.002 -2.40446 100.004Z" fill="#BE0007"/>
<path d="M345.008 151.954L350.626 118.875L357.914 120.113L357.576 122.1C361.482 127.194 363.331 134.373 363.966 140.664C365.706 137.016 367.967 132.872 370.785 130.04C372.535 128.049 374.062 126.799 376.079 125.243L376.417 123.255L383.704 124.493L378.079 157.619L370.791 156.381L375.235 130.212C374.942 130.503 374.594 130.833 374.293 131.171C373.708 131.754 373.161 132.391 372.607 133.076C372.187 133.54 371.807 134.06 371.434 134.532C371.173 134.926 370.864 135.312 370.602 135.705C366.947 141.171 364.671 147.406 363.959 150.741L363.951 150.789C363.911 151.025 363.879 151.215 363.846 151.404L360.534 150.841C361.474 145.305 360.501 135.84 358.315 130.649C358.065 129.827 357.713 129.037 357.352 128.294C357.18 127.876 356.96 127.449 356.74 127.022L352.296 153.191L345.008 151.954Z" fill="black"/>
<path d="M391.721 125.829L424.907 131.09L419.646 164.275L386.461 159.015L391.721 125.829ZM416.449 137.233L420.678 134.162L398.443 130.637L394.919 152.871L390.69 155.943L412.924 159.468L416.449 137.233Z" fill="black"/>
<path d="M429.806 158.907L433.667 132.451L466.867 137.297L465.252 148.364L457.938 147.296L459.019 139.886L440.448 137.176L437.515 157.267C447.601 159.952 452.759 162.839 455.338 165.107L456.322 158.363L463.637 159.43L462.015 170.545L454.7 169.477C454.329 168.695 451.681 164.573 437.023 160.639C434.88 160.036 432.492 159.445 429.806 158.907Z" fill="black"/>
<path d="M478.75 172.851L471.422 171.884L475.815 138.573L483.143 139.539L480.834 157.051C481.28 156.239 481.78 155.385 482.321 154.585C486.682 147.22 493.135 141.97 502.131 142.043L509.126 142.966L507.739 153.483L500.411 152.516L501.346 145.426C501.054 145.436 500.769 145.398 500.477 145.408C495.992 145.639 492.202 147.948 489.161 151.178C489.897 157.714 492.843 165.849 498.101 170.029L498.66 165.793L505.988 166.76L504.733 176.277L503.401 176.102C503.026 176.004 502.604 175.9 502.23 175.802C492.514 173.116 488.434 163.67 486.334 154.63C482.792 159.827 479.904 165.934 478.838 172.184L478.75 172.851Z" fill="black"/>
<path d="M517.654 144.062L551.03 147.935L547.157 181.311L513.781 177.439L517.654 144.062ZM542.835 154.426L546.932 151.181L524.571 148.586L521.976 170.948L517.878 174.193L540.24 176.788L542.835 154.426Z" fill="black"/>
<path d="M559.935 182.709L563.178 149.266L596.621 152.509L595.634 162.686C578.769 161.05 571.703 163.306 569.187 165.377L567.76 180.092L586.488 181.908L587.109 175.506C579.95 174.234 574.415 172.636 570.712 170.54C570.071 170.189 569.43 169.837 568.941 169.404C569.79 169.101 571.289 168.571 572.848 167.902C576.709 169.868 583.268 171.855 594.638 172.957L593.378 185.952L559.935 182.709ZM569.59 161.221L569.733 161.235C573.821 159.364 580.271 158.495 588.721 158.88L589.097 155.011L570.369 153.194L569.59 161.221Z" fill="black"/>
<path d="M600.499 179.72L602.532 153.062L635.987 155.612L635.136 166.764L627.766 166.202L628.335 158.735L609.621 157.309L608.078 177.554C618.325 179.539 623.668 182.064 626.398 184.15L626.916 177.353L634.286 177.915L633.433 189.115L626.062 188.553C625.638 187.798 622.712 183.869 607.819 180.952C605.639 180.497 603.216 180.072 600.499 179.72Z" fill="black"/>
<path d="M654.195 190.371L646.812 190.007L648.467 156.448L655.85 156.812L654.98 174.454C655.358 173.608 655.787 172.716 656.261 171.874C660.004 164.177 666.007 158.418 674.979 157.756L682.026 158.103L681.504 168.698L674.121 168.334L674.473 161.191C674.183 161.225 673.895 161.21 673.605 161.244C669.155 161.841 665.566 164.452 662.799 167.92C664.067 174.374 667.668 182.241 673.25 185.977L673.461 181.71L680.844 182.074L680.371 191.662L679.028 191.596C678.647 191.529 678.218 191.46 677.837 191.393C667.934 189.511 663.095 180.429 660.263 171.591C657.158 177.061 654.78 183.383 654.228 189.7L654.195 190.371Z" fill="black"/>
<path d="M691.069 158.388L698.46 158.516L697.977 186.496C702.127 182.487 709.723 179.065 714.993 176.948C715.621 176.719 716.25 176.442 716.926 176.213L717.225 158.888L724.616 159.015L724.036 192.61L716.645 192.483L716.863 179.813C716.573 179.952 716.235 180.042 715.945 180.181C711.739 181.885 699.645 187.197 697.88 192.159L690.489 192.031L691.069 158.388Z" fill="black"/>
<path d="M733.481 192.665L732.773 159.024L766.366 158.318L766.522 165.756L759.132 165.912L759.053 162.169L740.289 162.563L740.583 176.528C743.955 174.777 749.678 172.976 759.208 171.815L759.279 175.175C748.218 176.56 743.032 178.829 740.665 180.415L740.841 188.765L759.604 188.371L759.527 184.676L766.917 184.52L767.073 191.959L733.481 192.665Z" fill="black"/>
<path d="M815.285 189.476L807.911 190.001L805.526 156.485L812.899 155.961L814.153 173.58C814.427 172.694 814.745 171.757 815.115 170.865C817.908 162.774 823.176 156.336 832.003 154.601L839.041 154.1L839.794 164.681L832.421 165.206L831.913 158.072C831.629 158.14 831.342 158.161 831.058 158.229C826.711 159.357 823.462 162.379 821.132 166.154C823.165 172.409 827.684 179.787 833.675 182.826L833.372 178.564L840.745 178.04L841.426 187.615L840.086 187.711C839.699 187.69 839.265 187.673 838.879 187.652C828.821 186.973 822.927 178.538 819.055 170.103C816.629 175.906 815.026 182.468 815.237 188.806L815.285 189.476Z" fill="black"/>
<path d="M848.675 153.332L882.129 150.2L885.26 183.654L851.806 186.785L848.675 153.332ZM875.458 158.249L878.793 154.224L856.379 156.323L858.477 178.737L855.142 182.761L877.556 180.663L875.458 158.249Z" fill="black"/>
<path d="M904.654 181.633L897.309 182.464L893.529 149.029L900.875 148.198L902.422 161.887C905.726 159.92 911.128 157.715 920.088 155.784C920.279 155.762 920.47 155.741 920.655 155.672L919.571 146.085L926.917 145.254L930.697 178.689L923.351 179.52L921.033 159.01C920.847 159.08 920.657 159.101 920.466 159.123C910.287 161.384 905.31 163.928 902.853 165.703L904.654 181.633Z" fill="black"/>
<path d="M939.649 177.587L935.288 144.271L942.665 143.306L944.329 156.013C944.329 156.013 944.389 153.149 944.406 152.905C944.918 150.901 945.548 148.689 946.735 147.033L946.187 142.844L977.266 138.776L981.627 172.092L950.548 176.16L947.651 154.029C946.078 160.867 946.33 169.451 947.014 176.526L946.979 176.628L939.649 177.587ZM954.158 172.299L973.862 169.72L970.366 143.02L953.518 145.225L956.714 169.641L954.158 172.299Z" fill="black"/>
<path d="M989.699 170.969L984.803 137.727L992.116 136.65L996.474 166.235L1005.69 164.878L1002.36 142.274L1009.48 141.225L1012.81 163.829L1022.07 162.465L1017.71 132.88L1025.02 131.803L1029.92 165.044L989.699 170.969Z" fill="black"/>
<path d="M1047.93 162.244L1040.63 163.419L1035.28 130.199L1042.58 129.024L1044.77 142.624C1047.98 140.503 1053.27 138.047 1062.13 135.696C1062.32 135.666 1062.51 135.635 1062.69 135.557L1061.16 126.032L1068.46 124.856L1073.81 158.076L1066.51 159.252L1063.23 138.874C1063.04 138.952 1062.85 138.983 1062.66 139.013C1052.6 141.752 1047.75 144.527 1045.38 146.416L1047.93 162.244Z" fill="black"/>
<path d="M1075.41 123.656L1082.7 122.402L1087.44 149.981C1090.77 145.268 1097.6 140.489 1102.38 137.425C1102.95 137.083 1103.52 136.693 1104.14 136.342L1101.2 119.266L1108.49 118.012L1114.19 151.125L1106.9 152.379L1104.75 139.89C1104.49 140.081 1104.18 140.233 1103.92 140.423C1100.1 142.882 1089.21 150.358 1088.41 155.562L1081.12 156.817L1075.41 123.656Z" fill="black"/>
<path d="M1182.06 137.727L1176.02 104.722L1183.29 103.392L1183.65 105.376C1189.07 108.826 1193.26 114.94 1196.01 120.634C1196.4 116.611 1197.1 111.944 1198.78 108.319C1199.75 105.849 1200.75 104.152 1202.12 102L1201.75 100.017L1209.03 98.6872L1215.07 131.739L1207.8 133.069L1203.02 106.958C1202.85 107.331 1202.63 107.761 1202.47 108.182C1202.11 108.929 1201.82 109.715 1201.53 110.548C1201.3 111.128 1201.12 111.747 1200.93 112.318C1200.82 112.777 1200.66 113.245 1200.55 113.705C1198.98 120.09 1198.98 126.728 1199.45 130.106L1199.46 130.153C1199.5 130.389 1199.53 130.578 1199.57 130.767L1196.26 131.372C1195.25 125.847 1191.1 117.286 1187.27 113.156C1186.76 112.469 1186.16 111.847 1185.56 111.273C1185.26 110.938 1184.9 110.612 1184.55 110.286L1189.33 136.397L1182.06 137.727Z" fill="black"/>
<path d="M1217.02 97.2012L1250 90.7944L1256.41 123.778L1223.42 130.185L1217.02 97.2012ZM1244.15 99.4603L1247.08 95.1274L1224.98 99.4199L1229.27 121.519L1226.35 125.852L1248.45 121.559L1244.15 99.4603Z" fill="black"/>
<path d="M1264.12 115.258L1258.7 89.0776L1291.55 82.2759L1293.82 93.2276L1286.58 94.7262L1285.06 87.3937L1266.68 91.1984L1270.8 111.081C1281.2 110.154 1287.03 111.103 1290.23 112.352L1288.85 105.678L1296.09 104.179L1298.36 115.178L1291.13 116.677C1290.51 116.069 1286.61 113.102 1271.49 114.418C1269.27 114.584 1266.83 114.845 1264.12 115.258Z" fill="black"/>
<path d="M1314.88 111.621L1307.66 113.219L1300.4 80.4141L1307.61 78.8158L1311.43 96.0619C1311.57 95.1457 1311.75 94.1723 1311.99 93.2353C1313.57 84.823 1317.83 77.6831 1326.31 74.6748L1333.2 73.1492L1335.5 83.5062L1328.28 85.1045L1326.73 78.1217C1326.46 78.2308 1326.18 78.2931 1325.91 78.4022C1321.77 80.1537 1319 83.6191 1317.25 87.6944C1320.18 93.5849 1325.73 100.222 1332.1 102.351L1331.17 98.1797L1338.39 96.5814L1340.47 105.954L1339.15 106.245C1338.77 106.281 1338.34 106.328 1337.95 106.364C1327.9 107.163 1320.84 99.682 1315.77 91.9053C1314.22 98.0007 1313.6 104.727 1314.73 110.965L1314.88 111.621Z" fill="black"/>
<path d="M1341.59 71.2634L1374.28 63.4875L1382.05 96.1753L1349.37 103.951L1341.59 71.2634ZM1368.8 72.3895L1371.54 67.9385L1349.64 73.1484L1354.85 95.0492L1352.11 99.5003L1374.01 94.2904L1368.8 72.3895Z" fill="black"/>
<path d="M1394.54 93.1181L1386.15 60.5825L1418.68 52.1922L1421.24 62.0923C1404.83 66.3234 1398.96 70.8607 1397.31 73.667L1401 87.9827L1419.22 83.2841L1417.61 77.0558C1410.45 78.308 1404.7 78.6998 1400.5 77.9975C1399.78 77.8864 1399.06 77.7753 1398.45 77.5353C1399.15 76.9597 1400.37 75.9494 1401.61 74.7877C1405.91 75.3147 1412.75 74.9381 1423.81 72.0853L1427.07 84.7277L1394.54 93.1181ZM1396.26 69.6233L1396.4 69.5874C1399.6 66.432 1405.37 63.4089 1413.44 60.881L1412.47 57.1162L1394.25 61.8148L1396.26 69.6233Z" fill="black"/>
<path d="M1431.64 76.4357L1424.43 50.6897L1456.74 41.6441L1459.75 52.414L1452.63 54.4069L1450.62 47.1962L1432.54 52.256L1438.02 71.8082C1448.32 70.1685 1454.21 70.7142 1457.49 71.7404L1455.65 65.1768L1462.77 63.1839L1465.8 74L1458.68 75.9929C1458.02 75.429 1453.93 72.7368 1438.93 75.09C1436.73 75.4079 1434.31 75.8368 1431.64 76.4357Z" fill="black"/>
<rect x="1136" y="121" width="20" height="20" rx="10" fill="black"/>
<rect x="306.001" y="121" width="20" height="20" rx="10" fill="black"/>
<path d="M-15.4058 75.0483L-22.5139 73.0195L-13.2925 40.7097L-6.18432 42.7384L-11.0322 59.7242C-10.4719 58.9856 -9.85239 58.214 -9.19986 57.5017C-3.80842 50.8541 3.34411 46.606 12.2323 47.9947L19.0174 49.9312L16.106 60.1318L8.99785 58.1031L10.9607 51.2257C10.6706 51.1929 10.3936 51.1138 10.1035 51.0809C5.63314 50.6536 1.54578 52.3823 -1.9347 55.1326C-2.1636 61.7062 -0.440336 70.1847 4.15 75.0889L5.32244 70.9809L12.4306 73.0096L9.79591 82.241L8.50351 81.8721C8.14743 81.7206 7.74519 81.5559 7.38911 81.4043C-1.82949 77.3257 -4.48283 67.3837 -5.2371 58.1335C-9.50165 62.7567 -13.2516 68.3752 -15.2213 74.4021L-15.4058 75.0483Z" fill="black"/>
<path d="M28.333 52.5039L60.8403 61.0031L52.3411 93.5104L19.8338 85.0112L28.333 52.5039ZM51.8189 66.2849L56.3296 63.644L34.5497 57.9495L28.8553 79.7294L24.3445 82.3703L46.1244 88.0648L51.8189 66.2849Z" fill="black"/>
<path d="M71.2569 98.2451L64.0707 96.5132L71.9541 63.8018L79.1404 65.5336L75.9128 78.9262C79.6903 78.2073 85.5212 77.9831 94.601 79.2332C94.7876 79.2782 94.9743 79.3232 95.1722 79.3215L97.4326 69.9421L104.619 71.674L96.7355 104.385L89.5492 102.654L94.385 82.588C94.1871 82.5897 94.0004 82.5447 93.8138 82.4997C83.4757 81.1439 77.9282 81.8313 75.0131 82.6593L71.2569 98.2451Z" fill="black"/>
<path d="M105.525 106.412L112.822 73.6135L120.084 75.2292L117.301 87.7393C117.301 87.7393 118.338 85.0687 118.437 84.8449C119.603 83.1375 120.952 81.2739 122.634 80.1237L123.551 76.0005L154.148 82.807L146.851 115.605L116.255 108.799L121.102 87.0113C117.284 92.8988 114.586 101.051 112.809 107.934L112.741 108.017L105.525 106.412ZM120.967 106.405L140.365 110.72L146.213 84.4348L129.626 80.7449L124.279 104.781L120.967 106.405Z" fill="black"/>
<path d="M154.82 117.31L161.588 84.3992L168.829 85.8882L162.805 115.179L171.926 117.055L176.529 94.6753L183.581 96.1256L178.979 118.505L188.147 120.391L194.171 91.0997L201.411 92.5887L194.643 125.5L154.82 117.31Z" fill="black"/>
<path d="M212.524 129.028L205.264 127.636L211.599 94.5901L218.858 95.9817L216.265 109.511C220.005 108.615 225.818 108.117 234.947 108.938C235.136 108.974 235.324 109.01 235.522 108.999L237.338 99.5239L244.598 100.915L238.263 133.962L231.004 132.57L234.889 112.299C234.692 112.31 234.503 112.274 234.314 112.238C223.924 111.37 218.415 112.318 215.542 113.283L212.524 129.028Z" fill="black"/>
<path d="M251.546 102.167L258.82 103.48L253.849 131.019C258.589 127.729 266.636 125.572 272.177 124.329C272.834 124.203 273.499 124.031 274.203 123.914L277.281 106.861L284.556 108.175L278.587 141.24L271.312 139.927L273.564 127.457C273.255 127.547 272.907 127.582 272.598 127.672C268.173 128.678 255.383 131.979 252.843 136.593L245.568 135.28L251.546 102.167Z" fill="black"/>
</svg>
