<svg width="1440" height="234" viewBox="0 0 1440 234" fill="none" xmlns="http://www.w3.org/2000/svg">
<path d="M-4.87871 215.712C-4.86898 215.709 -4.85221 215.705 -4.8289 215.699C-4.78228 215.687 -4.70866 215.668 -4.6082 215.642C-4.40722 215.59 -4.09925 215.51 -3.68632 215.403C-2.86013 215.191 -1.61406 214.872 0.0324268 214.453C3.3255 213.615 8.22134 212.378 14.5715 210.8C27.2727 207.643 45.7857 203.121 68.9211 197.688C115.208 186.819 179.917 172.322 253.553 157.824C401.574 128.681 582.9 100.101 723.142 100L726.424 100.003C865.653 100.341 1043.78 128.324 1189.23 156.909C1262.16 171.241 1326.2 185.584 1371.99 196.342C1394.87 201.719 1413.18 206.196 1425.74 209.32C1432.02 210.883 1436.86 212.106 1440.11 212.936C1441.74 213.35 1442.97 213.667 1443.79 213.877C1444.2 213.982 1444.5 214.061 1444.7 214.112C1444.8 214.138 1444.87 214.157 1444.92 214.169C1444.94 214.175 1444.95 214.179 1444.96 214.182C1444.97 214.183 1444.97 214.183 1444.97 214.184C1444.97 214.184 1444.97 214.183 1455.05 175.474C1465.13 136.764 1465.12 136.763 1465.12 136.762C1465.11 136.761 1465.11 136.758 1465.1 136.756C1465.08 136.751 1465.06 136.745 1465.02 136.737C1464.96 136.721 1464.87 136.698 1464.76 136.668C1464.53 136.608 1464.19 136.521 1463.75 136.407C1462.87 136.18 1461.57 135.847 1459.87 135.414C1456.48 134.549 1451.49 133.288 1445.06 131.688C1432.19 128.487 1413.54 123.927 1390.28 118.462C1343.78 107.536 1278.76 92.9725 1204.66 78.4102C1058.35 49.658 873.925 20.3553 726.559 20.0029L723.085 20C574.643 20.1065 386.938 50.0265 238.099 79.3311C163.305 94.0571 97.6262 108.772 50.633 119.808C27.1287 125.327 8.2783 129.931 -4.72343 133.162C-11.2248 134.778 -16.2655 136.051 -19.6961 136.924C-21.4112 137.36 -22.7241 137.696 -23.616 137.926C-24.062 138.041 -24.4033 138.129 -24.6365 138.189C-24.7529 138.22 -24.8426 138.243 -24.9051 138.259C-24.9362 138.267 -24.9607 138.273 -24.9783 138.277C-24.9871 138.28 -24.9954 138.282 -24.9998 138.283C-25.0057 138.286 -24.948 138.527 -14.949 177C-5.08004 214.973 -4.89249 215.7 -4.88847 215.714C-4.88605 215.713 -4.88349 215.713 -4.87871 215.712Z" fill="white"/>
<path d="M-2.40446 235.671C-2.39196 235.668 -2.37268 235.663 -2.34684 235.656C-2.29502 235.643 -2.21652 235.622 -2.11149 235.595C-1.90144 235.54 -1.58557 235.458 -1.16618 235.35C-0.327066 235.133 0.926669 234.81 2.57601 234.388C5.87484 233.544 10.7576 232.304 17.077 230.726C29.716 227.568 48.1012 223.055 71.0575 217.637C116.974 206.799 181.159 192.345 254.219 177.887C400.527 148.933 581.731 120.102 723.079 120L726.387 120.003C866.712 120.343 1044.73 148.575 1188.52 176.978C1260.89 191.272 1324.41 205.574 1369.84 216.302C1392.55 221.665 1410.74 226.135 1423.24 229.261C1429.49 230.824 1434.32 232.05 1437.58 232.886C1439.21 233.303 1440.45 233.624 1441.28 233.839C1441.69 233.946 1442.01 234.027 1442.21 234.081C1442.32 234.108 1442.39 234.128 1442.45 234.142C1442.47 234.148 1442.49 234.153 1442.5 234.156C1442.51 234.158 1442.51 234.159 1442.52 234.16C1442.52 234.158 1442.56 233.997 1445.05 224.487C1447.5 215.135 1447.58 214.823 1447.58 214.812C1447.57 214.811 1447.57 214.808 1447.56 214.807C1447.55 214.803 1447.52 214.797 1447.5 214.79C1447.44 214.776 1447.36 214.755 1447.25 214.727C1447.04 214.67 1446.71 214.587 1446.29 214.478C1445.45 214.258 1444.19 213.934 1442.54 213.512C1439.24 212.667 1434.38 211.431 1428.09 209.858C1415.52 206.713 1397.25 202.223 1374.44 196.837C1328.83 186.067 1265.06 171.709 1192.4 157.356C1048.39 128.912 868.791 100.347 726.421 100.003L723.064 100C579.656 100.103 396.849 129.273 250.336 158.268C176.985 172.783 112.557 187.291 66.4627 198.171C43.4138 203.611 24.9437 208.146 12.2293 211.322C5.87222 212.91 0.953226 214.159 -2.38004 215.012C-4.04634 215.438 -5.31647 215.765 -6.17204 215.986C-6.59986 216.097 -6.92456 216.181 -7.14274 216.237C-7.25159 216.266 -7.33402 216.287 -7.38981 216.302C-7.41746 216.309 -7.43881 216.315 -7.45329 216.318C-7.46031 216.32 -7.46625 216.322 -7.46989 216.323C-7.47401 216.324 -7.47687 216.325 -4.94938 226C-2.42189 235.675 -2.42077 235.675 -2.41813 235.675C-2.41501 235.674 -2.41067 235.673 -2.40446 235.671Z" fill="#BE0007"/>
<path d="M-2.40446 135.671C-2.39196 135.668 -2.37268 135.663 -2.34684 135.656C-2.29502 135.643 -2.21652 135.622 -2.11149 135.595C-1.90144 135.54 -1.58557 135.458 -1.16618 135.35C-0.327066 135.133 0.926669 134.81 2.57601 134.388C5.87484 133.544 10.7576 132.304 17.077 130.726C29.716 127.568 48.1012 123.055 71.0575 117.637C116.974 106.799 181.159 92.345 254.219 77.8867C400.527 48.9327 581.731 20.102 723.079 20L726.387 20.0029C866.712 20.3431 1044.73 48.5752 1188.52 76.9775C1260.89 91.272 1324.41 105.574 1369.84 116.302C1392.55 121.665 1410.74 126.135 1423.24 129.261C1429.49 130.824 1434.32 132.05 1437.58 132.886C1439.21 133.303 1440.45 133.624 1441.28 133.839C1441.69 133.946 1442.01 134.027 1442.21 134.081C1442.32 134.108 1442.39 134.128 1442.45 134.142C1442.47 134.148 1442.49 134.153 1442.5 134.156C1442.51 134.158 1442.51 134.159 1442.52 134.16C1442.52 134.158 1442.56 133.997 1445.05 124.487C1447.5 115.135 1447.58 114.823 1447.58 114.812C1447.57 114.811 1447.57 114.808 1447.56 114.807C1447.55 114.803 1447.52 114.797 1447.5 114.79C1447.44 114.776 1447.36 114.755 1447.25 114.727C1447.04 114.67 1446.71 114.587 1446.29 114.478C1445.45 114.258 1444.19 113.934 1442.54 113.512C1439.24 112.667 1434.38 111.431 1428.09 109.858C1415.52 106.713 1397.25 102.223 1374.44 96.8369C1328.83 86.0666 1265.06 71.7091 1192.4 57.3564C1048.39 28.9119 868.791 0.346878 726.421 0.00291443L723.064 -1.52588e-05C579.656 0.103424 396.849 29.273 250.336 58.2676C176.985 72.7835 112.557 87.291 66.4627 98.1709C43.4138 103.611 24.9437 108.146 12.2293 111.322C5.87222 112.91 0.953226 114.159 -2.38004 115.012C-4.04634 115.438 -5.31647 115.765 -6.17204 115.986C-6.59986 116.097 -6.92456 116.181 -7.14274 116.237C-7.25159 116.266 -7.33402 116.287 -7.38981 116.302C-7.41746 116.309 -7.43881 116.315 -7.45329 116.318C-7.46031 116.32 -7.46625 116.322 -7.46989 116.323C-7.47401 116.324 -7.47687 116.325 -4.94938 126C-2.42189 135.675 -2.42077 135.675 -2.41813 135.675C-2.41501 135.674 -2.41067 135.673 -2.40446 135.671Z" fill="#BE0007"/>
</svg>
