<svg width="1280" height="190" viewBox="0 0 1280 190" fill="none" xmlns="http://www.w3.org/2000/svg">
<path d="M158.71 176.8H136.476V35.8336L89.9881 131.752H76.7379L30.5867 35.8336V176.8H9.81309V13.1999H40.1314L84.7105 104.284L127.83 13.1999H158.71V176.8Z" fill="#FFFCF1"/>
<path d="M328.267 31.9881C335.08 39.3129 340.283 48.2858 343.876 58.9069C347.544 69.5279 349.378 81.5772 349.378 95.0549C349.378 108.533 347.507 120.619 343.764 131.313C340.095 141.934 334.93 150.797 328.267 157.902C321.38 165.3 313.221 170.867 303.788 174.603C294.431 178.338 283.726 180.206 271.673 180.206C259.92 180.206 249.215 178.302 239.558 174.493C229.976 170.684 221.817 165.154 215.079 157.902C208.342 150.65 203.139 141.751 199.471 131.203C195.878 120.655 194.081 108.606 194.081 95.0549C194.081 81.7237 195.878 69.7842 199.471 59.2365C203.064 48.6155 208.304 39.5327 215.191 31.9881C221.779 24.8097 229.939 19.3161 239.671 15.5072C249.477 11.6983 260.145 9.79381 271.673 9.79381C283.651 9.79381 294.393 11.7349 303.901 15.6171C313.483 19.426 321.605 24.883 328.267 31.9881ZM326.246 95.0549C326.246 73.8129 321.38 57.4419 311.649 45.9419C301.917 34.3686 288.629 28.582 271.786 28.582C254.792 28.582 241.43 34.3686 231.698 45.9419C222.041 57.4419 217.213 73.8129 217.213 95.0549C217.213 116.517 222.153 132.961 232.035 144.388C241.917 155.741 255.167 161.418 271.786 161.418C288.405 161.418 301.617 155.741 311.424 144.388C321.306 132.961 326.246 116.517 326.246 95.0549Z" fill="#FFFCF1"/>
<path d="M506.135 130.104C506.135 136.477 504.6 142.776 501.531 149.002C498.537 155.228 494.307 160.502 488.842 164.824C482.853 169.512 475.854 173.174 467.844 175.811C459.909 178.448 450.327 179.767 439.098 179.767C427.045 179.767 416.191 178.668 406.534 176.471C396.952 174.273 387.182 171.014 377.226 166.692V139.443H378.798C387.257 146.329 397.026 151.639 408.106 155.375C419.185 159.111 429.591 160.978 439.322 160.978C453.097 160.978 463.802 158.451 471.437 153.397C479.148 148.343 483.003 141.604 483.003 133.181C483.003 125.929 481.169 120.582 477.501 117.139C473.908 113.697 468.405 111.023 460.994 109.119C455.38 107.654 449.279 106.445 442.691 105.493C436.178 104.541 429.254 103.332 421.917 101.867C407.095 98.7906 396.091 93.5533 388.904 86.1553C381.792 78.6839 378.237 68.9785 378.237 57.039C378.237 43.3416 384.15 32.1346 395.978 23.418C407.806 14.6282 422.816 10.2333 441.007 10.2333C452.76 10.2333 463.54 11.332 473.346 13.5295C483.153 15.7269 491.837 18.4371 499.397 21.6601V47.3702H497.825C491.462 42.0964 483.078 37.7381 472.672 34.2954C462.342 30.7795 451.749 29.0215 440.894 29.0215C428.992 29.0215 419.41 31.4387 412.148 36.2731C404.962 41.1075 401.368 47.3336 401.368 54.9514C401.368 61.7635 403.165 67.1107 406.758 70.9928C410.351 74.875 416.677 77.8416 425.735 79.8925C430.526 80.918 437.339 82.1632 446.172 83.6282C455.005 85.0932 462.491 86.5947 468.63 88.133C481.057 91.3559 490.414 96.2269 496.702 102.746C502.991 109.265 506.135 118.385 506.135 130.104Z" fill="#FFFCF1"/>
<path d="M676.254 176.8H647.396L581.257 103.955L564.638 90.1107V176.8H542.404V13.1999H564.638V98.5709L645.824 13.1999H672.773L598.1 90.1107L676.254 176.8Z" fill="#FFFCF1"/>
<path d="M823.691 31.9881C830.503 39.3129 835.706 48.2858 839.299 58.9069C842.967 69.5279 844.801 81.5772 844.801 95.0549C844.801 108.533 842.93 120.619 839.187 131.313C835.519 141.934 830.353 150.797 823.691 157.902C816.804 165.3 808.644 170.867 799.212 174.603C789.854 178.338 779.149 180.206 767.097 180.206C755.344 180.206 744.639 178.302 734.982 174.493C725.4 170.684 717.24 165.154 710.503 157.902C703.765 150.65 698.562 141.751 694.894 131.203C691.301 120.655 689.504 108.606 689.504 95.0549C689.504 81.7237 691.301 69.7842 694.894 59.2365C698.488 48.6155 703.728 39.5327 710.615 31.9881C717.203 24.8097 725.362 19.3161 735.094 15.5072C744.901 11.6983 755.568 9.79381 767.097 9.79381C779.074 9.79381 789.817 11.7349 799.324 15.6171C808.906 19.426 817.028 24.883 823.691 31.9881ZM821.67 95.0549C821.67 73.8129 816.804 57.4419 807.072 45.9419C797.34 34.3686 784.053 28.582 767.209 28.582C750.216 28.582 736.853 34.3686 727.122 45.9419C717.465 57.4419 712.636 73.8129 712.636 95.0549C712.636 116.517 717.577 132.961 727.458 144.388C737.34 155.741 750.59 161.418 767.209 161.418C783.828 161.418 797.041 155.741 806.847 144.388C816.729 132.961 821.67 116.517 821.67 95.0549Z" fill="#FFFCF1"/>
<path d="M1011.89 13.1999L951.028 176.8H921.383L860.522 13.1999H884.328L936.767 157.133L989.206 13.1999H1011.89Z" fill="#FFFCF1"/>
<path d="M1096.22 176.8H1030.19V160.1H1052.09V29.9005H1011.89L1030.19 13.1999H1096.22V29.9005H1074.32V160.1H1114.52L1096.22 176.8Z" fill="#FFFCF1"/>
<path d="M1265.89 176.8H1242.2L1225.8 131.203H1153.49L1137.09 176.8H1114.52L1175.38 13.1999H1205.03L1265.89 176.8ZM1218.95 112.525L1189.64 32.2078L1160.22 112.525H1218.95Z" fill="#FFFCF1"/>
<path d="M349.378 95.0549C349.378 81.9986 347.657 70.2822 344.214 59.9068L343.876 58.9069C340.283 48.2858 335.08 39.3129 328.267 31.9881C321.813 25.1051 313.988 19.7686 304.794 15.979L303.901 15.6171C294.69 11.8563 284.321 9.91706 272.792 9.79955L271.673 9.79381C260.145 9.79381 249.477 11.6983 239.671 15.5072C229.939 19.3161 221.779 24.8097 215.191 31.9881C208.304 39.5327 203.064 48.6155 199.471 59.2365C195.878 69.7842 194.081 81.7237 194.081 95.0549L194.086 96.3208C194.195 109.357 195.99 120.985 199.471 131.203C203.139 141.751 208.342 150.65 215.079 157.902C221.817 165.154 229.976 170.684 239.558 174.493C248.914 178.183 259.253 180.085 270.575 180.2L271.673 180.206C283.726 180.206 294.431 178.338 303.788 174.603C313.221 170.867 321.38 165.3 328.267 157.902C334.93 150.797 340.095 141.934 343.764 131.313C347.389 120.953 349.26 109.286 349.373 96.3141L349.378 95.0549ZM844.801 95.0549C844.801 81.9986 843.08 70.2823 839.638 59.9068L839.299 58.9069C835.706 48.2858 830.503 39.3129 823.691 31.9881C817.237 25.1051 809.412 19.7687 800.218 15.979L799.324 15.6171C790.114 11.8562 779.744 9.91704 768.216 9.79955L767.097 9.79381C755.568 9.79381 744.901 11.6983 735.094 15.5072C725.362 19.3161 717.203 24.8097 710.615 31.9881C703.728 39.5327 698.488 48.6155 694.894 59.2365C691.301 69.7842 689.504 81.7237 689.504 95.0549L689.51 96.3208C689.618 109.357 691.413 120.985 694.894 131.203C698.562 141.751 703.765 150.65 710.503 157.902C717.24 165.154 725.4 170.684 734.982 174.493C744.337 178.183 754.676 180.085 765.998 180.2L767.097 180.206C779.149 180.206 789.854 178.338 799.212 174.603C808.644 170.867 816.804 165.3 823.691 157.902C830.353 150.797 835.519 141.934 839.187 131.313C842.813 120.953 844.683 109.286 844.796 96.3141L844.801 95.0549ZM506.135 130.104C506.135 118.751 503.184 109.838 497.283 103.365L496.702 102.746C490.414 96.2269 481.057 91.3559 468.63 88.133C463.259 86.787 456.856 85.4688 449.421 84.179L446.172 83.6282C438.443 82.3464 432.261 81.2326 427.627 80.2873L425.735 79.8925C416.961 77.9057 410.75 75.0595 407.103 71.3542L406.758 70.9928C403.277 67.232 401.482 62.0962 401.374 55.5856L401.368 54.9514C401.368 47.3336 404.962 41.1075 412.148 36.2731C419.41 31.4387 428.992 29.0215 440.894 29.0215L441.911 29.0266C452.411 29.133 462.665 30.8893 472.672 34.2954C482.753 37.6304 490.936 41.8248 497.223 46.8783L497.825 47.3702H499.397V21.6601C492.309 18.6386 484.234 16.0677 475.172 13.9476L473.346 13.5295C464.152 11.4694 454.103 10.375 443.199 10.2462L441.007 10.2333C422.816 10.2333 407.806 14.6282 395.978 23.418C384.15 32.1346 378.237 43.3416 378.237 57.039L378.247 58.1517C378.462 69.5828 382.015 78.9174 388.904 86.1553C396.091 93.5533 407.095 98.7906 421.917 101.867C429.254 103.332 436.178 104.541 442.691 105.493C449.279 106.445 455.38 107.654 460.994 109.119C468.405 111.023 473.908 113.697 477.501 117.139C481.169 120.582 483.003 125.929 483.003 133.181L482.992 133.966C482.758 142.024 478.907 148.501 471.437 153.397C463.802 158.451 453.097 160.978 439.322 160.978L439.323 151.184C452.077 151.184 460.606 148.815 466.014 145.235L466.032 145.223L466.05 145.211C471.303 141.769 473.19 137.958 473.19 133.181C473.19 127.419 471.736 125.173 470.778 124.274L470.742 124.24L470.705 124.205C468.813 122.391 465.127 120.293 458.547 118.603L458.53 118.599L458.512 118.594C453.299 117.234 447.561 116.093 441.284 115.185L441.269 115.183C434.567 114.204 427.473 112.965 419.992 111.471L419.919 111.455C404.025 108.156 390.912 102.292 381.859 92.9724L381.824 92.937L381.79 92.9006C372.671 83.3213 368.423 71.0619 368.423 57.0394C368.423 40.2504 375.788 26.3879 389.492 16.0297L390.149 15.5391C404.028 5.23706 421.221 0.439981 441.007 0.439957C453.364 0.439957 464.877 1.59445 475.496 3.97395C485.763 6.27453 495.035 9.15121 503.252 12.6535L509.21 15.1938V57.1637H494.282L491.556 54.9047C486.386 50.6192 479.185 46.7686 469.584 43.592L469.545 43.5786L469.505 43.5653C460.188 40.3945 450.665 38.8156 440.894 38.8156C430.255 38.8156 422.768 40.9801 417.608 44.4098C412.719 47.7062 411.181 51.0799 411.181 54.9515C411.181 60.0355 412.489 62.7507 413.967 64.3475C415.531 66.0373 419.481 68.4261 427.852 70.328C432.417 71.3035 439.034 72.5167 447.781 73.9672C456.216 75.3662 463.567 76.817 469.79 78.3304L471.02 78.6336L471.059 78.6441L471.098 78.6537C484.584 82.1513 495.809 87.6987 503.772 95.9536C512.294 104.789 515.948 116.628 515.948 130.105C515.948 138.106 514.009 145.876 510.336 153.326C506.695 160.865 501.534 167.283 494.936 172.5L494.917 172.516L494.898 172.53C487.924 177.989 479.891 182.158 470.918 185.112L470.917 185.111C461.712 188.166 451.032 189.56 439.098 189.56C426.463 189.56 414.859 188.41 404.352 186.019L404.344 186.017L404.336 186.016C394.108 183.67 383.766 180.21 373.312 175.673L367.413 173.112V129.649H382.292L385 131.854C392.485 137.946 401.201 142.709 411.246 146.096C421.511 149.557 430.849 151.184 439.323 151.184L439.322 160.978L438.408 160.973C429.245 160.864 419.49 159.112 409.143 155.72L408.106 155.375C397.026 151.639 387.257 146.329 378.798 139.443H377.226V166.692C387.182 171.014 396.952 174.273 406.534 176.471C415.587 178.531 425.693 179.625 436.852 179.754L439.098 179.767C450.327 179.767 459.909 178.448 467.844 175.811C475.604 173.257 482.415 169.74 488.278 165.26L488.842 164.824C494.307 160.502 498.537 155.228 501.531 149.002C504.504 142.971 506.037 136.871 506.13 130.702L506.135 130.104ZM158.71 13.1999H127.83L84.7105 104.284L40.1314 13.1999H9.81309V176.8H30.5867V35.8336L76.7379 131.752H89.9881L136.476 35.8336V176.8H158.71V13.1999ZM542.404 13.1999V176.8H564.638V98.5709L569.127 93.8504L564.638 90.1107V13.1999H542.404ZM1030.19 13.1999L1011.89 29.9005H1052.09V160.1H1030.19V176.8H1096.22L1114.52 160.1H1074.32V29.9005H1096.22V13.1999H1030.19ZM645.824 13.1999L569.127 93.8504L581.257 103.955L647.396 176.8H676.254L598.1 90.1107L672.773 13.1999H645.824ZM860.522 13.1999L921.383 176.8H951.028L1011.89 13.1999H989.206L936.767 157.133L884.328 13.1999H860.522ZM1175.38 13.1999L1114.52 176.8H1137.09L1153.49 131.203H1225.8L1242.2 176.8H1265.89L1205.03 13.1999H1175.38ZM316.433 95.0545C316.433 75.1867 311.875 61.3887 304.151 52.2611L304.132 52.2381C296.489 43.1492 286.097 38.3757 271.785 38.3757C257.293 38.3758 246.84 43.1706 239.215 52.2381L239.214 52.2372C231.551 61.366 227.026 75.1745 227.026 95.0545C227.026 115.138 231.655 128.953 239.455 137.979C247.266 146.946 257.687 151.624 271.785 151.624L271.786 161.418L271.009 161.413C255.011 161.241 242.175 155.743 232.5 144.916L232.035 144.388C222.462 133.318 217.526 117.54 217.227 97.0525L217.213 95.0549C217.213 73.8129 222.041 57.4419 231.698 45.9419C241.43 34.3686 254.792 28.582 271.786 28.582L272.573 28.5867C289.044 28.7648 302.069 34.5496 311.649 45.9419C321.38 57.4419 326.246 73.8129 326.246 95.0549L326.232 97.0525C325.932 117.54 320.997 133.318 311.424 144.388C301.617 155.741 288.405 161.418 271.786 161.418L271.785 151.624C285.891 151.624 296.261 146.943 303.991 137.993L303.995 137.989L304.358 137.562C311.944 128.53 316.433 114.832 316.433 95.0545ZM811.857 95.0545C811.857 75.1867 807.299 61.3887 799.575 52.2611L799.565 52.2496L799.555 52.2381C791.912 43.1492 781.521 38.3758 767.209 38.3757C752.717 38.3757 742.263 43.1706 734.638 52.2381L734.637 52.2372C726.974 61.366 722.45 75.1746 722.45 95.0545C722.45 115.146 727.082 128.963 734.888 137.989C742.698 146.95 753.116 151.624 767.209 151.624L767.209 161.418L766.432 161.413C750.435 161.241 737.599 155.743 727.924 144.916L727.458 144.388C717.886 133.318 712.95 117.54 712.651 97.0525L712.636 95.0549C712.636 73.8129 717.465 57.4419 727.122 45.9419C736.853 34.3686 750.216 28.582 767.209 28.582L767.996 28.5867C784.467 28.7647 797.492 34.5495 807.072 45.9419C816.804 57.4419 821.67 73.8129 821.67 95.0549L821.655 97.0525C821.356 117.54 816.42 133.318 806.847 144.388C797.041 155.741 783.828 161.418 767.209 161.418L767.209 151.624C781.315 151.624 791.685 146.943 799.415 137.993L799.418 137.989L799.782 137.562C807.368 128.53 811.857 114.832 811.857 95.0545ZM1218.95 112.525H1160.22L1189.64 32.2078L1218.95 112.525ZM1174.26 102.731H1204.93L1189.63 60.78L1174.26 102.731ZM359.191 95.0545C359.191 109.413 357.199 122.605 353.04 134.503L353.041 134.504C348.997 146.215 343.184 156.318 335.455 164.568L335.456 164.569C327.579 173.031 318.206 179.424 307.432 183.695L307.432 183.696C296.713 187.976 284.735 190 271.673 190C258.847 190 246.899 187.919 235.952 183.602L235.927 183.592C225.047 179.267 215.653 172.924 207.883 164.561C200.111 156.195 194.256 146.077 190.201 134.414L190.19 134.385L190.18 134.356C186.176 122.601 184.268 109.454 184.268 95.0545C184.268 80.8558 186.181 67.824 190.18 56.0839C194.165 44.3154 200.055 34.0275 207.938 25.3922L207.955 25.3731C215.625 17.0154 225.065 10.7041 236.088 6.38989L236.1 6.38511L236.112 6.38033C247.157 2.09053 259.044 1.98259e-05 271.673 0C284.682 0 296.687 2.10602 307.53 6.51901L307.531 6.51805C318.036 10.6938 327.141 16.69 334.705 24.5314L335.432 25.2956L335.446 25.3109L335.46 25.3252L336.191 26.1229C343.677 34.4077 349.296 44.3351 353.153 55.7157L353.53 56.828C357.359 68.3681 359.191 81.1498 359.191 95.0545ZM854.615 95.0545C854.615 109.413 852.622 122.605 848.464 134.503L848.464 134.504C844.42 146.215 838.608 156.318 830.88 164.568L830.88 164.569C823.003 173.031 813.63 179.424 802.856 183.695L802.857 183.696C792.137 187.976 780.158 190 767.096 190C754.271 190 742.322 187.919 731.375 183.602L731.35 183.592C720.47 179.267 711.077 172.924 703.307 164.561C695.535 156.195 689.68 146.077 685.624 134.414L685.613 134.385L685.604 134.356C681.599 122.601 679.692 109.454 679.692 95.0545C679.692 80.8558 681.604 67.824 685.604 56.0839C689.588 44.3153 695.478 34.0275 703.361 25.3922L703.378 25.3731C711.048 17.0154 720.489 10.7041 731.511 6.38989L731.523 6.38511L731.535 6.38033C742.58 2.09051 754.467 4.62603e-05 767.096 0C780.106 0 792.111 2.10585 802.954 6.51901L802.955 6.51805C813.46 10.6938 822.564 16.6901 830.128 24.5314L830.856 25.2956L830.87 25.3109L830.883 25.3252C838.735 33.7679 844.594 43.9675 848.577 55.7157L848.953 56.828C852.782 68.3681 854.615 81.1497 854.615 95.0545ZM168.523 186.594H126.663V78.5734L96.1424 141.546H70.5642L40.3995 78.8517V186.594H0V3.40584H46.2595L84.5632 81.6684L121.613 3.40584H168.523V186.594ZM574.451 74.0246L641.608 3.40584H695.947L611.523 90.3585L698.284 186.594H643.045L574.451 111.044V186.594H532.591V3.40584H574.451V74.0246ZM1106.03 39.6946H1084.13V150.305H1113.91L1168.56 3.40584H1211.85L1280 186.594H1235.29L1218.9 140.996H1160.39L1144 186.594H1100.41L1100.61 186.065L1100.03 186.594H1020.38V150.305H1042.28V39.6946H1012.5L957.852 186.594H914.559L846.411 3.40584H891.201L936.766 128.472L982.333 3.40584H1026L1025.8 3.93474L1026.38 3.40584H1106.03V39.6946Z" fill="#FFFCF1"/>
</svg>
